#!OML:ASF F:\VICON\USERDATA\INSTALL\rory3\rory3.ASF
:FULLY-SPECIFIED
:DEGREES
3636
root -2.85933 17.6369 1.59452 7.73303 34.1933 -7.12527
lowerback 3.95405 12.2414 3.16145
upperback 0.713968 16.5154 -7.28096
thorax 1.65988 8.47466 -9.33655
lowerneck -12.105 -13.5624 -17.6599
upperneck 20.2678 -17.7615 11.7786
head 11.2629 -8.37903 4.35569
rclavicle -7.95139e-015 2.06736e-014
rhumerus 57.5571 20.5969 -58.2971
rradius 38.9103
rwrist 36.9754
rhand -27.2605 6.05737
rfingers 7.12502
rthumb -0.671714 -23.9213
lclavicle -7.95139e-015 2.06736e-014
lhumerus -30.5433 41.491 -1.5571
lradius 36.6079
lwrist -8.13675
lhand -18.4395 30.4057
lfingers 7.12502
lthumb 7.8462 60.2401
rfemur -13.857 -16.5504 24.4738
rtibia 28.683
rfoot -30.0524 -13.714
rtoes 15.4055
lfemur -31.2877 -12.7669 -5.29626
ltibia 35.9955
lfoot -16.3518 -12.2107
ltoes -18.4744
3637
root -2.86541 17.6297 1.60689 7.73587 34.8424 -7.04684
lowerback 4.30624 12.2396 2.96279
upperback 0.793021 16.5094 -7.44085
thorax 1.54537 8.47545 -9.48022
lowerneck -11.8391 -13.6877 -17.3616
upperneck 20.0826 -18.0474 11.8549
head 11.1675 -8.49369 4.29756
rclavicle -2.42517e-014 -2.22639e-014
rhumerus 58.5556 21.1022 -58.1861
rradius 38.7966
rwrist 37.0449
rhand -27.0991 5.98219
rfingers 7.12502
rthumb -0.51581 -23.9969
lclavicle -2.42517e-014 -2.22639e-014
lhumerus -31.6078 41.7524 -2.40217
lradius 36.542
lwrist -8.0785
lhand -18.3725 30.3366
lfingers 7.12502
lthumb 7.91078 60.1686
rfemur -13.7876 -16.7224 24.4817
rtibia 28.7691
rfoot -30.4351 -13.7921
rtoes 15.8076
lfemur -31.5321 -13.0841 -5.27347
ltibia 36.1295
lfoot -16.325 -12.5331
ltoes -18.088
3638
root -2.86536 17.626 1.6193 8.00508 35.3932 -6.78717
lowerback 4.49081 12.2594 2.65895
upperback 0.836553 16.5273 -7.65162
thorax 1.47549 8.48835 -9.58754
lowerneck -11.5735 -13.8423 -17.1951
upperneck 19.9232 -18.3505 11.9461
head 11.1003 -8.62453 4.2603
rclavicle 1.30403e-013 -1.11319e-014
rhumerus 59.5555 21.6578 -57.9776
rradius 38.7104
rwrist 37.1069
rhand -26.872 6.10386
rfingers 7.12502
rthumb -0.296461 -23.8757
lclavicle 1.30403e-013 -1.11319e-014
lhumerus -32.6459 41.9286 -3.16529
lradius 36.45
lwrist -7.93543
lhand -17.6221 30.2884
lfingers 7.12502
lthumb 8.63499 60.0918
rfemur -13.929 -17.0491 24.3334
rtibia 28.9102
rfoot -30.5674 -13.8469
rtoes 15.2889
lfemur -31.8916 -13.377 -5.42276
ltibia 36.2444
lfoot -16.2924 -12.7936
ltoes -17.7593
3639
root -2.85875 17.6234 1.63405 8.22612 36.0425 -6.85783
lowerback 4.39773 12.295 2.64505
upperback 0.897916 16.5839 -7.74468
thorax 1.62742 8.52754 -9.64072
lowerneck -11.3074 -14.0417 -17.4367
upperneck 19.8073 -18.6916 12.2536
head 11.1256 -8.77996 4.34973
rclavicle 1.00585e-013 -7.15625e-014
rhumerus 60.4999 22.2057 -57.6042
rradius 38.6293
rwrist 37.0162
rhand -26.618 6.19359
rfingers 7.12502
rthumb -0.0511321 -23.7861
lclavicle 1.00585e-013 -7.15625e-014
lhumerus -33.644 41.9832 -3.60793
lradius 36.4424
lwrist -7.44425
lhand -17.3563 30.4527
lfingers 7.12502
lthumb 8.89157 60.2454
rfemur -14.2068 -17.6654 24.5046
rtibia 29.0644
rfoot -30.4571 -13.7883
rtoes 14.5498
lfemur -32.3952 -13.6354 -5.24594
ltibia 36.35
lfoot -16.2608 -13.1187
ltoes -17.3777
3640
root -2.85796 17.6171 1.64448 8.25548 36.7109 -7.12627
lowerback 4.43142 12.3515 2.75422
upperback 0.982101 16.6697 -7.7304
thorax 1.74148 8.57908 -9.66975
lowerneck -10.9691 -14.2413 -17.8092
upperneck 19.6293 -19.0236 12.6071
head 11.1351 -8.94066 4.47929
rclavicle -7.67309e-014 5.88403e-014
rhumerus 61.3423 22.6759 -57.1942
rradius 38.5406
rwrist 37.1048
rhand -26.5476 6.48306
rfingers 7.12502
rthumb 0.0168917 -23.4967
lclavicle -7.67309e-014 5.88403e-014
lhumerus -34.6036 41.918 -3.81919
lradius 36.5123
lwrist -6.8949
lhand -17.3757 30.7632
lfingers 7.12502
lthumb 8.87279 60.5566
rfemur -14.4179 -18.0634 24.8512
rtibia 29.1917
rfoot -30.3649 -13.885
rtoes 13.8778
lfemur -32.8832 -13.8614 -4.87463
ltibia 36.4798
lfoot -16.2418 -13.4506
ltoes -16.9411
3641
root -2.8573 17.6092 1.65351 8.20891 37.2972 -7.36113
lowerback 4.53414 12.4325 2.83122
upperback 1.07915 16.7873 -7.73841
thorax 1.83633 8.64744 -9.71933
lowerneck -10.679 -14.4307 -17.8008
upperneck 19.4998 -19.3453 12.692
head 11.0969 -9.09324 4.45879
rclavicle -1.29608e-013 3.18055e-014
rhumerus 62.069 23.026 -57.0737
rradius 38.4217
rwrist 37.4625
rhand -26.4354 6.85117
rfingers 7.12502
rthumb 0.125197 -23.1285
lclavicle -1.29608e-013 3.18055e-014
lhumerus -35.4707 42.032 -4.12855
lradius 36.4424
lwrist -6.63757
lhand -17.496 30.8806
lfingers 7.12502
lthumb 8.75675 60.6789
rfemur -14.5027 -18.2669 25.0999
rtibia 29.288
rfoot -30.2998 -14.0043
rtoes 13.1512
lfemur -33.2582 -14.015 -4.5978
ltibia 36.6271
lfoot -16.3173 -13.7368
ltoes -17.0417
3642
root -2.85388 17.6036 1.66297 8.35597 37.9249 -7.43187
lowerback 4.44532 12.4689 2.72388
upperback 1.20055 16.8393 -7.73916
thorax 1.99282 8.6798 -9.62499
lowerneck -10.4641 -14.5992 -17.7758
upperneck 19.4246 -19.6031 12.6614
head 11.0662 -9.22228 4.40359
rclavicle -1.98785e-015 -2.38542e-014
rhumerus 62.942 23.4628 -56.6184
rradius 38.3052
rwrist 37.2947
rhand -26.5281 7.665
rfingers 7.12502
rthumb 0.0357018 -22.3147
lclavicle -1.98785e-015 -2.38542e-014
lhumerus -36.2976 41.7731 -4.33179
lradius 36.2615
lwrist -5.98162
lhand -17.8798 31.081
lfingers 7.12502
lthumb 8.38636 60.8945
rfemur -14.6693 -18.489 25.2071
rtibia 29.386
rfoot -30.2857 -13.9705
rtoes 12.6087
lfemur -33.7447 -14.2666 -4.43257
ltibia 36.7751
lfoot -16.3504 -13.9778
ltoes -17.1
